<svg width="24" height="24" viewBox="0 0 24 24" fill="none" xmlns="http://www.w3.org/2000/svg">
<g clip-path="url(#clip0_815_800)">
<path d="M15.539 3.53909C15.539 1.58768 13.9514 0.00012207 12 0.00012207C10.0485 0.00012207 8.46094 1.58768 8.46094 3.53909C8.46094 5.4905 10.0485 7.07806 12 7.07806C13.9514 7.07806 15.539 5.4905 15.539 3.53909ZM12 5.67186C10.824 5.67186 9.86719 4.71509 9.86719 3.53909C9.86719 2.36309 10.824 1.40633 12 1.40633C13.176 1.40633 14.1327 2.36309 14.1327 3.53909C14.1327 4.71509 13.176 5.67186 12 5.67186Z" fill="#568E4C"/>
<path d="M6.13181 19.5345L4.71591 19.1524L3.91495 17.924C3.63797 17.4991 3.01411 17.4988 2.73698 17.924L1.93603 19.1524L0.520125 19.5345C0.030422 19.6667 -0.162609 20.2599 0.156094 20.6548L1.07695 21.7962L1.00284 23.2609C0.977203 23.7675 1.48177 24.1341 1.95591 23.9533L3.32597 23.4301L4.69603 23.9533C5.16937 24.1338 5.67478 23.7682 5.64905 23.2609L5.57494 21.7962L6.4958 20.6548C6.81436 20.2601 6.6218 19.6668 6.13181 19.5345ZM4.15697 21.5991L4.19016 22.2548C3.61612 22.0483 3.53733 21.9744 3.32602 21.9744C3.11442 21.9744 3.03361 22.0491 2.46188 22.2548C2.45527 21.7556 2.5973 21.4408 2.34005 21.1221L1.92778 20.6112L2.56163 20.4402C2.95697 20.3335 3.02433 19.9992 3.32597 19.5954C3.62503 19.9957 3.69488 20.3335 4.09031 20.4402L4.72416 20.6112C4.43573 21.0195 4.13625 21.1901 4.15697 21.5991Z" fill="#568E4C"/>
<path d="M23.48 19.5345L22.0641 19.1524L21.2631 17.924C20.9861 17.4991 20.3623 17.4988 20.0851 17.924L19.2842 19.1524L17.8683 19.5345C17.3786 19.6667 17.1855 20.2599 17.5042 20.6548L18.4251 21.7962L18.351 23.2609C18.3253 23.7675 18.8299 24.1342 19.304 23.9533L20.6741 23.4301L22.0442 23.9533C22.5175 24.1338 23.023 23.7687 22.9972 23.2609L22.9231 21.7962L23.844 20.6548C24.1626 20.2601 23.97 19.6668 23.48 19.5345ZM21.5051 21.5991L21.5383 22.2548C21.0572 22.1045 20.8051 21.875 20.4233 22.0206L19.81 22.2548L19.8432 21.5991C19.8639 21.1902 19.5668 21.0229 19.2759 20.6112C19.7493 20.4504 20.0919 20.4884 20.3156 20.1453L20.6741 19.5953L21.0327 20.1453C21.2563 20.4883 21.595 20.4491 22.0723 20.6112C21.7839 21.0195 21.4844 21.1901 21.5051 21.5991Z" fill="#568E4C"/>
<path d="M16.2209 17.871L13.9012 17.2451L12.589 15.2324C12.312 14.8075 11.6882 14.8072 11.411 15.2324L10.0989 17.2451L7.77917 17.871C7.28942 18.0032 7.09643 18.5964 7.41514 18.9914L8.92381 20.8613L8.80236 23.2609C8.77667 23.7674 9.28114 24.1342 9.75537 23.9533L12 23.0962L14.2446 23.9533C14.7179 24.1338 15.2234 23.7683 15.1977 23.2608L15.0762 20.8613L16.5849 18.9914C16.9034 18.5966 16.7109 18.0033 16.2209 17.871ZM13.8132 20.1872C13.7046 20.3218 13.6495 20.4916 13.6582 20.6642L13.7387 22.2549L12.2508 21.6868C12.0921 21.6262 11.9136 21.624 11.7492 21.6868L10.2613 22.2549L10.3418 20.6642C10.3506 20.4916 10.2954 20.3218 10.1868 20.1872L9.18673 18.9477L10.7244 18.5328C10.8913 18.4877 11.0357 18.3828 11.1302 18.238L12 16.9038L12.8698 18.238C12.9642 18.3828 13.1087 18.4877 13.2756 18.5328L14.8132 18.9477L13.8132 20.1872Z" fill="#568E4C"/>
<path d="M6.37524 14.156H17.6251C18.0134 14.156 18.3282 13.8412 18.3282 13.4529V10.5936C18.3282 8.65513 16.7511 7.07806 14.8126 7.07806H12.0002H9.1877C7.24918 7.07806 5.67212 8.65513 5.67212 10.5936V13.4529C5.67212 13.8412 5.98693 14.156 6.37524 14.156ZM7.07837 10.5936C7.07837 9.43049 8.02459 8.48427 9.1877 8.48427H14.8126C15.9757 8.48427 16.9219 9.43049 16.9219 10.5936V12.7498H7.07837V10.5936Z" fill="#568E4C"/>
</g>
<defs>
<clipPath id="clip0_815_800">
<rect width="24" height="24" fill="white"/>
</clipPath>
</defs>
</svg>
