<svg width="24" height="24" viewBox="0 0 24 24" fill="none" xmlns="http://www.w3.org/2000/svg">
<g clip-path="url(#clip0_815_3223)">
<path d="M12 0.000366211C5.39208 0.000366211 0 5.39329 0 12.0004C0 18.6083 5.39292 24.0004 12 24.0004C18.6079 24.0004 24 18.6074 24 12.0004C24 5.3924 18.6071 0.000366211 12 0.000366211ZM12 22.5941C6.15858 22.5941 1.40625 17.8418 1.40625 12.0004C1.40625 6.15894 6.15858 1.40662 12 1.40662C17.8414 1.40662 22.5938 6.15894 22.5938 12.0004C22.5938 17.8418 17.8414 22.5941 12 22.5941Z" fill="#568E4C"/>
<path d="M12 2.85974C6.95986 2.85974 2.85938 6.96023 2.85938 12.0004C2.85938 17.0405 6.95986 21.141 12 21.141C17.0401 21.141 21.1406 17.0405 21.1406 12.0004C21.1406 6.96023 17.0401 2.85974 12 2.85974ZM12 19.7347C7.73527 19.7347 4.26562 16.2651 4.26562 12.0004C4.26562 7.73563 7.73527 4.26599 12 4.26599C16.2647 4.26599 19.7344 7.73563 19.7344 12.0004C19.7344 16.2651 16.2647 19.7347 12 19.7347Z" fill="#568E4C"/>
<path d="M17.625 11.2972H12.7031V6.37537C12.7031 5.98705 12.3883 5.67224 12 5.67224C11.6117 5.67224 11.2969 5.98705 11.2969 6.37537V12.0004C11.2969 12.3887 11.6117 12.7035 12 12.7035H17.625C18.0133 12.7035 18.3281 12.3887 18.3281 12.0004C18.3281 11.6121 18.0133 11.2972 17.625 11.2972Z" fill="#568E4C"/>
</g>
<defs>
<clipPath id="clip0_815_3223">
<rect width="24" height="24" fill="white" transform="translate(0 0.000366211)"/>
</clipPath>
</defs>
</svg>
