<svg width="24" height="24" viewBox="0 0 24 24" fill="none" xmlns="http://www.w3.org/2000/svg">
<g clip-path="url(#clip0_815_3159)">
<path d="M17.625 15.9377H15.5156V14.1615C16.2606 13.5192 16.8283 12.677 17.1351 11.719H18.0938C19.2569 11.719 20.2031 10.7727 20.2031 9.60962C20.2031 8.44651 19.2569 7.50024 18.0938 7.50024H17.3906V6.10628L18.304 4.96454C18.6612 4.5181 18.8205 3.96001 18.7525 3.3931C18.6849 2.82859 18.4 2.32637 17.9502 1.97903C16.7813 1.07631 14.8002 0.000244141 12 0.000244141C9.19983 0.000244141 7.21866 1.07631 6.04978 1.97898C5.60002 2.32632 5.31506 2.82849 5.24747 3.39306C5.17955 3.95996 5.33883 4.51806 5.69597 4.96449L6.60938 6.10628V7.50024H5.90625C4.74314 7.50024 3.79688 8.44651 3.79688 9.60962C3.79688 10.7727 4.74314 11.719 5.90625 11.719H6.86494C7.17173 12.677 7.73944 13.5192 8.48438 14.1615V15.9377H6.375C3.91955 15.9377 1.92188 17.9354 1.92188 20.3909V23.2971C1.92188 23.6854 2.23669 24.0002 2.625 24.0002H21.375C21.7633 24.0002 22.0781 23.6854 22.0781 23.2971V20.3909C22.0781 17.9354 20.0805 15.9377 17.625 15.9377ZM18.0938 8.90649C18.4815 8.90649 18.7969 9.22192 18.7969 9.60962C18.7969 9.99732 18.4815 10.3127 18.0938 10.3127H17.3852C17.3886 10.235 17.3906 10.1569 17.3906 10.0784V8.90649H18.0938ZM6.64369 3.56035C6.66609 3.37328 6.76041 3.20696 6.90923 3.09203C7.90495 2.32309 9.59634 1.40649 12 1.40649C14.4037 1.40649 16.095 2.32309 17.0908 3.09203C17.2396 3.20696 17.334 3.37328 17.3563 3.56035C17.379 3.74978 17.3257 3.93648 17.206 4.08606L16.3496 5.15649H7.65042L6.79402 4.08606C6.67439 3.93648 6.621 3.74978 6.64369 3.56035ZM15.2908 6.56274C14.44 7.45431 13.2572 7.96899 12 7.96899C10.7428 7.96899 9.55992 7.45431 8.70914 6.56274H15.2908ZM5.90625 10.3127C5.51855 10.3127 5.20312 9.99732 5.20312 9.60962C5.20312 9.22192 5.51855 8.90649 5.90625 8.90649H6.60938V10.0784C6.60938 10.1569 6.61144 10.235 6.61477 10.3127H5.90625ZM8.01562 10.0784V7.84815C9.09619 8.82128 10.508 9.37524 12 9.37524C13.492 9.37524 14.9038 8.82128 15.9844 7.84815V10.0784C15.9844 12.2754 14.197 14.0627 12 14.0627C9.80302 14.0627 8.01562 12.2754 8.01562 10.0784ZM12 15.469C12.7482 15.469 13.4611 15.3157 14.1094 15.039V16.3808L13.1122 17.5441C12.752 17.4746 12.3802 17.4377 12 17.4377C11.6198 17.4377 11.248 17.4746 10.8878 17.5441L9.89062 16.3808V15.039C10.5389 15.3157 11.2518 15.469 12 15.469ZM12 18.844C12.5598 18.844 13.0957 18.9481 13.5896 19.1375L12 21.8909L10.4104 19.1375C10.9043 18.9481 11.4402 18.844 12 18.844ZM3.32812 20.3909C3.32812 18.7108 4.69495 17.344 6.375 17.344H8.86411L9.44691 18.0239C7.69252 18.8768 6.42492 20.5799 6.18295 22.594H3.32812V20.3909ZM9.19388 19.843L10.7821 22.594H7.60228C7.77825 21.4895 8.36236 20.5198 9.19388 19.843ZM13.2179 22.594L14.8061 19.843C15.6376 20.5198 16.2217 21.4895 16.3977 22.594H13.2179ZM20.6719 22.594H17.817C17.5751 20.5799 16.3075 18.8768 14.5531 18.0239L15.1359 17.344H17.625C19.305 17.344 20.6719 18.7108 20.6719 20.3909V22.594Z" fill="#568E4C"/>
<path d="M10.5938 3.98462H13.4062C13.7946 3.98462 14.1094 3.66981 14.1094 3.28149C14.1094 2.89318 13.7946 2.57837 13.4062 2.57837H10.5938C10.2054 2.57837 9.89062 2.89318 9.89062 3.28149C9.89062 3.66981 10.2054 3.98462 10.5938 3.98462Z" fill="#568E4C"/>
<path d="M12.0001 12.6548C12.6603 12.6548 13.3205 12.4035 13.8231 11.9009C14.0977 11.6263 14.0977 11.1811 13.8231 10.9066C13.5486 10.632 13.1034 10.632 12.8288 10.9066C12.3718 11.3635 11.6284 11.3635 11.1715 10.9066C10.8969 10.632 10.4517 10.632 10.1771 10.9066C9.90254 11.1811 9.90254 11.6263 10.1771 11.9009C10.6797 12.4036 11.3399 12.6548 12.0001 12.6548Z" fill="#568E4C"/>
</g>
<defs>
<clipPath id="clip0_815_3159">
<rect width="24" height="24" fill="white" transform="translate(0 0.000244141)"/>
</clipPath>
</defs>
</svg>
