<svg width="24" height="24" viewBox="0 0 24 24" fill="none" xmlns="http://www.w3.org/2000/svg">
<g clip-path="url(#clip0_815_1380)">
<path d="M12.8906 13.6407C13.2789 13.6407 13.5938 13.3259 13.5938 12.9376V10.1251C13.5938 9.73675 13.2789 9.42194 12.8906 9.42194C12.5023 9.42194 12.1875 9.73675 12.1875 10.1251V12.9376C12.1875 13.3259 12.5023 13.6407 12.8906 13.6407Z" fill="#568E4C"/>
<path d="M4.45312 13.6407C4.84144 13.6407 5.15625 13.3259 5.15625 12.9376V10.1251C5.15625 9.73675 4.84144 9.42194 4.45312 9.42194C4.06481 9.42194 3.75 9.73675 3.75 10.1251V12.9376C3.75 13.3259 4.06481 13.6407 4.45312 13.6407Z" fill="#568E4C"/>
<path d="M23.9497 11.7389L22.7819 8.81936C22.2449 7.4769 20.9636 6.60944 19.5177 6.60944H19.3125V5.20319H21.4219C21.8102 5.20319 22.125 4.88837 22.125 4.50006C22.125 4.11175 21.8102 3.79694 21.4219 3.79694H13.8281C13.593 3.79694 13.3735 3.9144 13.2431 4.11006L12.1885 5.69191C11.7601 5.01255 11.0707 4.51333 10.2623 4.33614C9.95836 2.43864 8.30991 0.984436 6.32812 0.984436C4.34634 0.984436 2.69789 2.43864 2.39395 4.33609C1.02656 4.63581 0 5.85658 0 7.31256V11.5313C0 11.6701 0.0410625 11.8058 0.118078 11.9213L2.20181 15.0469H0.703125C0.314812 15.0469 0 15.3617 0 15.7501V20.4376C0 20.8259 0.314812 21.1407 0.703125 21.1407H2.505C2.892 22.2318 3.93408 23.0157 5.15625 23.0157C6.37842 23.0157 7.42045 22.2318 7.8075 21.1407H16.1925C16.5795 22.2318 17.6216 23.0157 18.8438 23.0157C20.0659 23.0157 21.108 22.2318 21.495 21.1407H23.2969C23.6852 21.1407 24 20.8259 24 20.4376V12.0001C24 11.9106 23.9829 11.822 23.9497 11.7389ZM19.3125 8.01569H19.5177C20.3853 8.01569 21.154 8.53619 21.4762 9.34169L22.2584 11.2969H19.3125V8.01569ZM3.04688 5.67194C3.43519 5.67194 3.75 5.35712 3.75 4.96881C3.75 3.54723 4.90655 2.39069 6.32812 2.39069C7.7497 2.39069 8.90625 3.54723 8.90625 4.96881C8.90625 5.35712 9.22106 5.67194 9.60938 5.67194C10.2625 5.67194 10.8276 6.05566 11.0914 6.60944H1.56487C1.82869 6.05566 2.39372 5.67194 3.04688 5.67194ZM1.40625 11.3184V8.01569H11.9531V8.01522C12.1838 8.01522 12.4053 7.90183 12.5381 7.70256L14.2044 5.20319H17.9062V6.60944H15.7031C15.3148 6.60944 15 6.92425 15 7.31256V15.0469H3.89194L1.40625 11.3184ZM5.15625 21.6094C4.38084 21.6094 3.75 20.9786 3.75 20.2032C3.75 19.4278 4.38084 18.7969 5.15625 18.7969C5.93166 18.7969 6.5625 19.4278 6.5625 20.2032C6.5625 20.9786 5.93166 21.6094 5.15625 21.6094ZM18.8438 21.6094C18.0683 21.6094 17.4375 20.9786 17.4375 20.2032C17.4375 19.4278 18.0683 18.7969 18.8438 18.7969C19.6192 18.7969 20.25 19.4278 20.25 20.2032C20.25 20.9786 19.6192 21.6094 18.8438 21.6094ZM22.5938 19.7344H21.6165C21.3925 18.406 20.2348 17.3907 18.8438 17.3907C17.4527 17.3907 16.295 18.406 16.071 19.7344H7.92895C7.70503 18.406 6.54731 17.3907 5.15625 17.3907C3.76519 17.3907 2.60747 18.406 2.38355 19.7344H1.40625V16.4532H22.5938V19.7344ZM22.5938 15.0469H16.4062V8.01569H17.9062V12.0001C17.9062 12.3884 18.2211 12.7032 18.6094 12.7032H22.5938V15.0469Z" fill="#568E4C"/>
<path d="M10.0781 13.6407C10.4664 13.6407 10.7812 13.3259 10.7812 12.9376V10.1251C10.7812 9.73675 10.4664 9.42194 10.0781 9.42194C9.68981 9.42194 9.375 9.73675 9.375 10.1251V12.9376C9.375 13.3259 9.68981 13.6407 10.0781 13.6407Z" fill="#568E4C"/>
<path d="M7.26562 13.6407C7.65394 13.6407 7.96875 13.3259 7.96875 12.9376V10.1251C7.96875 9.73675 7.65394 9.42194 7.26562 9.42194C6.87731 9.42194 6.5625 9.73675 6.5625 10.1251V12.9376C6.5625 13.3259 6.87731 13.6407 7.26562 13.6407Z" fill="#568E4C"/>
</g>
<defs>
<clipPath id="clip0_815_1380">
<rect width="24" height="24" fill="white"/>
</clipPath>
</defs>
</svg>
