<svg width="24" height="24" viewBox="0 0 24 24" fill="none" xmlns="http://www.w3.org/2000/svg">
<g clip-path="url(#clip0_815_814)">
<path d="M24 5.22125C24 4.00344 23.0092 3.01263 21.7914 3.01263H2.20862C0.991035 3.01268 0.000421877 4.00301 0 5.22163V5.222V18.7783C0 20.0113 1.00088 20.9876 2.20937 20.9876H21.7906C23.0236 20.9876 24 19.9868 24 18.7783V5.222C24 5.22191 24 5.22181 24 5.22172C24 5.22158 24 5.22144 24 5.22125ZM2.20862 4.41894H21.7914C22.2338 4.41894 22.5937 4.77889 22.5937 5.22242C22.5937 5.45811 22.4766 5.67688 22.2802 5.80775L12.4455 12.3645C12.1749 12.5449 11.8252 12.5449 11.5545 12.3645C11.5545 12.3645 1.71962 5.80761 1.7198 5.80775C1.71985 5.8078 1.71966 5.80766 1.71962 5.80761C1.5234 5.67688 1.40626 5.45811 1.40626 5.22125C1.40626 4.77884 1.76621 4.41894 2.20862 4.41894ZM21.7906 19.5814H2.20937C1.7716 19.5814 1.40626 19.2274 1.40626 18.7783V7.28887L10.7744 13.5345C11.1467 13.7827 11.5733 13.9068 12 13.9068C12.4267 13.9068 12.8534 13.7827 13.2256 13.5345L22.5937 7.28887V18.7783C22.5937 19.216 22.2398 19.5814 21.7906 19.5814Z" fill="#568E4C"/>
</g>
<defs>
<clipPath id="clip0_815_814">
<rect width="24" height="24" fill="white"/>
</clipPath>
</defs>
</svg>
