<svg width="24" height="24" viewBox="0 0 24 24" fill="none" xmlns="http://www.w3.org/2000/svg">
<g clip-path="url(#clip0_815_3179)">
<path d="M23.6474 1.9697C23.6474 1.4679 23.1347 1.1252 22.67 1.32212C18.0397 3.28478 15.872 2.28611 13.5769 1.22889C11.317 0.18784 8.98185 -0.88705 4.65515 1.16734L4.59327 0.624059C4.54926 0.237387 4.19929 -0.0401597 3.81285 0.00507466L0.972884 0.337981C0.588087 0.383122 0.312274 0.731168 0.356149 1.1162L2.89209 23.3764C2.9361 23.763 3.28621 24.0407 3.67251 23.9954L6.51243 23.6625C6.89727 23.6173 7.17309 23.2693 7.12921 22.8842L6.14479 14.2429C9.29938 12.9971 11.0163 13.783 12.991 14.6875C14.3848 15.3259 15.8885 16.0147 17.9609 16.0147C19.3922 16.0147 21.0948 15.6861 23.2197 14.7855C23.4796 14.6753 23.6485 14.4202 23.6485 14.1378L23.6474 1.9697ZM4.20941 22.5161L1.83271 1.65357L3.27595 1.48436L5.65265 22.3469L4.20941 22.5161ZM13.5764 13.4085C11.5601 12.4849 9.47962 11.5327 5.98049 12.8013L4.82301 2.64057C4.97699 2.59239 5.90826 2.06725 7.1092 1.71934C9.66941 0.977637 11.2338 1.6982 12.9887 2.50661C15.1929 3.52197 17.6724 4.66393 22.2413 3.00278L22.2422 13.6665C17.9038 15.3908 15.7999 14.4269 13.5764 13.4085Z" fill="#568E4C"/>
</g>
<defs>
<clipPath id="clip0_815_3179">
<rect width="24" height="24" fill="white" transform="translate(0 0.000244141)"/>
</clipPath>
</defs>
</svg>
