<svg width="24" height="24" viewBox="0 0 24 24" fill="none" xmlns="http://www.w3.org/2000/svg">
<g clip-path="url(#clip0_815_1368)">
<path d="M0.835849 7.25386C1.29757 7.25386 1.6717 6.87963 1.6717 6.41802V2.85418L7.05512 8.23649C7.21839 8.39965 7.43225 8.48123 7.64612 8.48123C7.8601 8.48123 8.07407 8.39965 8.23723 8.23638C8.56366 7.90995 8.56366 7.38069 8.23712 7.05438L2.85348 1.67196H6.41809C6.8797 1.67196 7.25394 1.29772 7.25394 0.836108C7.25394 0.374497 6.87981 0.000259399 6.41809 0.000259399H0.835849C0.374126 0.000259399 0 0.374497 0 0.836108V6.41813C0 6.87963 0.374126 7.25386 0.835849 7.25386Z" fill="#568E4C"/>
<path d="M23.1642 16.7462C22.7025 16.7462 22.3284 17.1204 22.3284 17.5821V21.146L16.7792 15.5969C16.4527 15.2704 15.9235 15.2704 15.5971 15.5969C15.2707 15.9233 15.2707 16.4525 15.5971 16.7789L21.1461 22.3279H17.5824C17.1207 22.3279 16.7466 22.7021 16.7466 23.1637C16.7466 23.6253 17.1207 23.9996 17.5824 23.9996H23.1643C23.6261 23.9996 24.0002 23.6253 24.0002 23.1637V17.5821C24.0001 17.1204 23.6258 16.7462 23.1642 16.7462Z" fill="#568E4C"/>
<path d="M7.22077 15.5969L1.67219 21.1459V17.582C1.67219 17.1204 1.29806 16.7462 0.836337 16.7462C0.374614 16.7462 0.000488281 17.1204 0.000488281 17.582V23.164C0.000488281 23.6256 0.374614 23.9998 0.836337 23.9998H6.41802C6.87963 23.9998 7.25387 23.6256 7.25387 23.164C7.25387 22.7023 6.87975 22.3281 6.41802 22.3281H2.85419L8.40288 16.7789C8.72931 16.4524 8.72931 15.9232 8.40277 15.5967C8.07657 15.2704 7.54731 15.2704 7.22077 15.5969Z" fill="#568E4C"/>
<path d="M23.1642 0.000259399H17.5823C17.1206 0.000259399 16.7465 0.374497 16.7465 0.836108C16.7465 1.29772 17.1206 1.67196 17.5823 1.67196H21.1462L15.7636 7.05493C15.4372 7.38136 15.4372 7.91062 15.7637 8.23705C15.9269 8.4002 16.1409 8.48178 16.3547 8.48178C16.5686 8.48178 16.7826 8.40009 16.9458 8.23693L22.3285 2.85396V6.41802C22.3285 6.87963 22.7026 7.25387 23.1643 7.25387C23.626 7.25387 24.0002 6.87963 24.0002 6.41802V0.836108C24.0001 0.374385 23.6258 0.000259399 23.1642 0.000259399Z" fill="#568E4C"/>
</g>
<defs>
<clipPath id="clip0_815_1368">
<rect width="24" height="24" fill="white"/>
</clipPath>
</defs>
</svg>
