<svg width="24" height="24" viewBox="0 0 24 24" fill="none" xmlns="http://www.w3.org/2000/svg">
<path d="M23.2969 4.5189H0.703216C0.314905 4.5189 9.37496e-05 4.83371 9.37496e-05 5.22202V14.2577C9.37496e-05 14.2583 0 14.2588 0 14.2595C0 14.2601 9.37496e-05 14.2607 9.37496e-05 14.2613V18.7782C9.37496e-05 19.1665 0.314905 19.4813 0.703216 19.4813H23.2969C23.6852 19.4813 24 19.1665 24 18.7782V5.22202C24 4.83371 23.6852 4.5189 23.2969 4.5189ZM1.40634 5.92515H4.45283C4.16445 7.46611 2.94735 8.68321 1.40634 8.97159V5.92515ZM1.40634 18.0751V15.0287C2.9473 15.317 4.16436 16.5341 4.45273 18.0751H1.40634ZM22.5938 18.0751H19.5472C19.8356 16.5341 21.0527 15.317 22.5938 15.0287V18.0751ZM22.5938 13.6038C20.2757 13.9172 18.4358 15.7571 18.1225 18.0751H5.87749C5.56409 15.7571 3.72425 13.9173 1.40634 13.6038V10.3963C3.7243 10.083 5.56423 8.24311 5.87759 5.92515H18.1225C18.4359 8.24311 20.2758 10.083 22.5938 10.3963V13.6038ZM22.5938 8.97159C21.0527 8.68321 19.8357 7.46616 19.5473 5.92515H22.5938V8.97159Z" fill="#568E4C"/>
<path d="M12.0001 9.03763C10.3665 9.03763 9.0376 10.3666 9.0376 12.0001C9.0376 13.6336 10.3665 14.9626 12.0001 14.9626C13.6336 14.9626 14.9626 13.6336 14.9626 12.0001C14.9626 10.3666 13.6336 9.03763 12.0001 9.03763ZM12.0001 13.5564C11.1419 13.5564 10.4438 12.8582 10.4438 12.0001C10.4438 11.142 11.1419 10.4439 12.0001 10.4439C12.8582 10.4439 13.5563 11.142 13.5563 12.0001C13.5563 12.8583 12.8582 13.5564 12.0001 13.5564Z" fill="#568E4C"/>
<path d="M6.47197 11.5028C6.34119 11.372 6.16025 11.297 5.97509 11.297C5.78994 11.297 5.60853 11.372 5.47775 11.5028C5.34697 11.6336 5.27197 11.815 5.27197 12.0001C5.27197 12.1853 5.34697 12.3667 5.47775 12.4975C5.60853 12.6282 5.78994 12.7032 5.97509 12.7032C6.16025 12.7032 6.34119 12.6282 6.47197 12.4975C6.60322 12.3662 6.67822 12.1853 6.67822 12.0001C6.67822 11.815 6.60322 11.634 6.47197 11.5028Z" fill="#568E4C"/>
<path d="M18.5222 11.5028C18.3915 11.372 18.2101 11.297 18.0254 11.297C17.8402 11.297 17.6588 11.372 17.528 11.5028C17.3972 11.634 17.3218 11.815 17.3218 12.0001C17.3218 12.1853 17.3972 12.3667 17.528 12.4975C17.6588 12.6282 17.8402 12.7032 18.0254 12.7032C18.2101 12.7032 18.3915 12.6282 18.5222 12.4975C18.653 12.3667 18.728 12.1853 18.728 12.0001C18.728 11.815 18.653 11.634 18.5222 11.5028Z" fill="#568E4C"/>
</svg>
