<svg width="24" height="24" viewBox="0 0 24 24" fill="none" xmlns="http://www.w3.org/2000/svg">
<g clip-path="url(#clip0_815_3187)">
<path d="M9.1875 4.21906C9.57583 4.21906 9.89062 3.90426 9.89062 3.51593C9.89062 3.1276 9.57583 2.81281 9.1875 2.81281C8.79917 2.81281 8.48438 3.1276 8.48438 3.51593C8.48438 3.90426 8.79917 4.21906 9.1875 4.21906Z" fill="#568E4C"/>
<path d="M14.8125 4.21906C15.2008 4.21906 15.5156 3.90426 15.5156 3.51593C15.5156 3.1276 15.2008 2.81281 14.8125 2.81281C14.4242 2.81281 14.1094 3.1276 14.1094 3.51593C14.1094 3.90426 14.4242 4.21906 14.8125 4.21906Z" fill="#568E4C"/>
<path d="M12 4.21906C12.3883 4.21906 12.7031 3.90426 12.7031 3.51593C12.7031 3.1276 12.3883 2.81281 12 2.81281C11.6117 2.81281 11.2969 3.1276 11.2969 3.51593C11.2969 3.90426 11.6117 4.21906 12 4.21906Z" fill="#568E4C"/>
<path d="M9.1875 7.03156C9.57583 7.03156 9.89062 6.71676 9.89062 6.32843C9.89062 5.9401 9.57583 5.62531 9.1875 5.62531C8.79917 5.62531 8.48438 5.9401 8.48438 6.32843C8.48438 6.71676 8.79917 7.03156 9.1875 7.03156Z" fill="#568E4C"/>
<path d="M14.8125 7.03156C15.2008 7.03156 15.5156 6.71676 15.5156 6.32843C15.5156 5.9401 15.2008 5.62531 14.8125 5.62531C14.4242 5.62531 14.1094 5.9401 14.1094 6.32843C14.1094 6.71676 14.4242 7.03156 14.8125 7.03156Z" fill="#568E4C"/>
<path d="M12 7.03156C12.3883 7.03156 12.7031 6.71676 12.7031 6.32843C12.7031 5.9401 12.3883 5.62531 12 5.62531C11.6117 5.62531 11.2969 5.9401 11.2969 6.32843C11.2969 6.71676 11.6117 7.03156 12 7.03156Z" fill="#568E4C"/>
<path d="M9.1875 9.84406C9.57583 9.84406 9.89062 9.52926 9.89062 9.14093C9.89062 8.7526 9.57583 8.43781 9.1875 8.43781C8.79917 8.43781 8.48438 8.7526 8.48438 9.14093C8.48438 9.52926 8.79917 9.84406 9.1875 9.84406Z" fill="#568E4C"/>
<path d="M14.8125 9.84406C15.2008 9.84406 15.5156 9.52926 15.5156 9.14093C15.5156 8.7526 15.2008 8.43781 14.8125 8.43781C14.4242 8.43781 14.1094 8.7526 14.1094 9.14093C14.1094 9.52926 14.4242 9.84406 14.8125 9.84406Z" fill="#568E4C"/>
<path d="M12 9.84406C12.3883 9.84406 12.7031 9.52926 12.7031 9.14093C12.7031 8.7526 12.3883 8.43781 12 8.43781C11.6117 8.43781 11.2969 8.7526 11.2969 9.14093C11.2969 9.52926 11.6117 9.84406 12 9.84406Z" fill="#568E4C"/>
<path d="M9.1875 15.4691C9.57583 15.4691 9.89062 15.1543 9.89062 14.7659C9.89062 14.3776 9.57583 14.0628 9.1875 14.0628C8.79917 14.0628 8.48438 14.3776 8.48438 14.7659C8.48438 15.1543 8.79917 15.4691 9.1875 15.4691Z" fill="#568E4C"/>
<path d="M14.8125 15.4691C15.2008 15.4691 15.5156 15.1543 15.5156 14.7659C15.5156 14.3776 15.2008 14.0628 14.8125 14.0628C14.4242 14.0628 14.1094 14.3776 14.1094 14.7659C14.1094 15.1543 14.4242 15.4691 14.8125 15.4691Z" fill="#568E4C"/>
<path d="M12 15.4691C12.3883 15.4691 12.7031 15.1543 12.7031 14.7659C12.7031 14.3776 12.3883 14.0628 12 14.0628C11.6117 14.0628 11.2969 14.3776 11.2969 14.7659C11.2969 15.1543 11.6117 15.4691 12 15.4691Z" fill="#568E4C"/>
<path d="M9.1875 18.2816C9.57583 18.2816 9.89062 17.9668 9.89062 17.5784C9.89062 17.1901 9.57583 16.8753 9.1875 16.8753C8.79917 16.8753 8.48438 17.1901 8.48438 17.5784C8.48438 17.9668 8.79917 18.2816 9.1875 18.2816Z" fill="#568E4C"/>
<path d="M14.8125 18.2816C15.2008 18.2816 15.5156 17.9668 15.5156 17.5784C15.5156 17.1901 15.2008 16.8753 14.8125 16.8753C14.4242 16.8753 14.1094 17.1901 14.1094 17.5784C14.1094 17.9668 14.4242 18.2816 14.8125 18.2816Z" fill="#568E4C"/>
<path d="M12 18.2816C12.3883 18.2816 12.7031 17.9668 12.7031 17.5784C12.7031 17.1901 12.3883 16.8753 12 16.8753C11.6117 16.8753 11.2969 17.1901 11.2969 17.5784C11.2969 17.9668 11.6117 18.2816 12 18.2816Z" fill="#568E4C"/>
<path d="M9.1875 12.6566C9.57583 12.6566 9.89062 12.3418 9.89062 11.9534C9.89062 11.5651 9.57583 11.2503 9.1875 11.2503C8.79917 11.2503 8.48438 11.5651 8.48438 11.9534C8.48438 12.3418 8.79917 12.6566 9.1875 12.6566Z" fill="#568E4C"/>
<path d="M14.8125 12.6566C15.2008 12.6566 15.5156 12.3418 15.5156 11.9534C15.5156 11.5651 15.2008 11.2503 14.8125 11.2503C14.4242 11.2503 14.1094 11.5651 14.1094 11.9534C14.1094 12.3418 14.4242 12.6566 14.8125 12.6566Z" fill="#568E4C"/>
<path d="M12 12.6566C12.3883 12.6566 12.7031 12.3418 12.7031 11.9534C12.7031 11.5651 12.3883 11.2503 12 11.2503C11.6117 11.2503 11.2969 11.5651 11.2969 11.9534C11.2969 12.3418 11.6117 12.6566 12 12.6566Z" fill="#568E4C"/>
<path d="M20.4375 9.84406C20.8258 9.84406 21.1406 9.52926 21.1406 9.14093C21.1406 8.7526 20.8258 8.43781 20.4375 8.43781C20.0492 8.43781 19.7344 8.7526 19.7344 9.14093C19.7344 9.52926 20.0492 9.84406 20.4375 9.84406Z" fill="#568E4C"/>
<path d="M20.4375 12.6566C20.8258 12.6566 21.1406 12.3418 21.1406 11.9534C21.1406 11.5651 20.8258 11.2503 20.4375 11.2503C20.0492 11.2503 19.7344 11.5651 19.7344 11.9534C19.7344 12.3418 20.0492 12.6566 20.4375 12.6566Z" fill="#568E4C"/>
<path d="M20.4375 15.4691C20.8258 15.4691 21.1406 15.1543 21.1406 14.7659C21.1406 14.3776 20.8258 14.0628 20.4375 14.0628C20.0492 14.0628 19.7344 14.3776 19.7344 14.7659C19.7344 15.1543 20.0492 15.4691 20.4375 15.4691Z" fill="#568E4C"/>
<path d="M20.4375 18.2816C20.8258 18.2816 21.1406 17.9668 21.1406 17.5784C21.1406 17.1901 20.8258 16.8753 20.4375 16.8753C20.0492 16.8753 19.7344 17.1901 19.7344 17.5784C19.7344 17.9668 20.0492 18.2816 20.4375 18.2816Z" fill="#568E4C"/>
<path d="M23.25 5.62531H18.3281V0.70343C18.3281 0.315118 18.0133 0.000305176 17.625 0.000305176H6.375C5.98669 0.000305176 5.67188 0.315118 5.67188 0.70343V5.62531H0.75C0.361687 5.62531 0.046875 5.94012 0.046875 6.32843V23.2972C0.046875 23.6855 0.361687 24.0003 0.75 24.0003H23.25C23.6383 24.0003 23.9531 23.6855 23.9531 23.2972V6.32843C23.9531 5.94012 23.6383 5.62531 23.25 5.62531ZM5.67188 22.5941H4.26562V20.3909C4.26562 20.0026 3.95081 19.6878 3.5625 19.6878C3.17419 19.6878 2.85938 20.0026 2.85938 20.3909V22.5941H1.45312V7.03156H5.67188V22.5941ZM11.2969 22.5941H9.89062V21.0941H11.2969V22.5941ZM14.1094 22.5941H12.7031V21.0941H14.1094V22.5941ZM16.9219 22.5941H15.5156V20.3909C15.5156 20.0026 15.2008 19.6878 14.8125 19.6878H9.1875C8.79919 19.6878 8.48438 20.0026 8.48438 20.3909V22.5941H7.07812V1.40656H16.9219V22.5941ZM22.5469 22.5941H21.1406V20.3909C21.1406 20.0026 20.8258 19.6878 20.4375 19.6878C20.0492 19.6878 19.7344 20.0026 19.7344 20.3909V22.5941H18.3281V7.03156H22.5469V22.5941Z" fill="#568E4C"/>
<path d="M3.5625 9.84406C3.95083 9.84406 4.26562 9.52926 4.26562 9.14093C4.26562 8.7526 3.95083 8.43781 3.5625 8.43781C3.17417 8.43781 2.85938 8.7526 2.85938 9.14093C2.85938 9.52926 3.17417 9.84406 3.5625 9.84406Z" fill="#568E4C"/>
<path d="M3.5625 12.6566C3.95083 12.6566 4.26562 12.3418 4.26562 11.9534C4.26562 11.5651 3.95083 11.2503 3.5625 11.2503C3.17417 11.2503 2.85938 11.5651 2.85938 11.9534C2.85938 12.3418 3.17417 12.6566 3.5625 12.6566Z" fill="#568E4C"/>
<path d="M3.5625 15.4691C3.95083 15.4691 4.26562 15.1543 4.26562 14.7659C4.26562 14.3776 3.95083 14.0628 3.5625 14.0628C3.17417 14.0628 2.85938 14.3776 2.85938 14.7659C2.85938 15.1543 3.17417 15.4691 3.5625 15.4691Z" fill="#568E4C"/>
<path d="M3.5625 18.2816C3.95083 18.2816 4.26562 17.9668 4.26562 17.5784C4.26562 17.1901 3.95083 16.8753 3.5625 16.8753C3.17417 16.8753 2.85938 17.1901 2.85938 17.5784C2.85938 17.9668 3.17417 18.2816 3.5625 18.2816Z" fill="#568E4C"/>
</g>
<defs>
<clipPath id="clip0_815_3187">
<rect width="24" height="24" fill="white" transform="translate(0 0.000305176)"/>
</clipPath>
</defs>
</svg>
