<svg width="18" height="19" viewBox="0 0 18 19" fill="none" xmlns="http://www.w3.org/2000/svg">
<path d="M15.8069 18.5469C16.9644 18.5469 17.9062 17.6006 17.9062 16.4375V13.625C17.9062 13.3225 17.7128 13.054 17.426 12.9581L13.2172 11.5519C13.0111 11.483 12.7851 11.5133 12.6044 11.6337L10.8145 12.8269C8.89369 11.9155 6.62339 9.66528 5.72039 7.77856L6.91317 5.98939C7.03359 5.80873 7.06383 5.58252 6.99502 5.37655L5.58877 1.16778C5.49291 0.880906 5.22436 0.6875 4.92188 0.6875H2.10938C0.946266 0.6875 0 1.62927 0 2.78689C0 6.67175 1.76644 10.6589 4.84641 13.726C7.923 16.7897 11.918 18.5469 15.8069 18.5469ZM2.10938 2.09375H4.41548L5.5522 5.49575L4.33687 7.31872C4.20844 7.51137 4.18308 7.75489 4.26909 7.96986C4.73667 9.13878 5.67239 10.4535 6.90384 11.6718C8.12719 12.8821 9.44831 13.8076 10.6239 14.2778C10.8388 14.3637 11.0824 14.3384 11.275 14.21L13.098 12.9947L16.5 14.1314V16.4375C16.5 16.8318 16.1955 17.1406 15.8069 17.1406C8.40469 17.1406 1.40625 10.165 1.40625 2.78689C1.40625 2.3982 1.71511 2.09375 2.10938 2.09375Z" fill="#568E4C"/>
</svg>
