<svg width="24" height="24" viewBox="0 0 24 24" fill="none" xmlns="http://www.w3.org/2000/svg">
<g clip-path="url(#clip0_815_822)">
<path d="M23.421 6.10523L20.4975 5.58136C20.534 5.35786 20.5547 5.13689 20.5547 4.92211C20.5547 2.20821 18.3468 0.000274658 15.6329 0.000274658C14.0373 0.000274658 12.6168 0.763722 11.7169 1.94426L10.4291 1.06109C10.312 0.980798 10.1733 0.937814 10.0314 0.937814L6.60937 0.937955C6.22106 0.937955 5.90625 1.25281 5.9063 1.64112L5.90639 3.09419H2.67204C2.48553 3.09419 2.30675 3.1683 2.17489 3.30016C2.04303 3.43201 1.96892 3.61084 1.96892 3.79731V6.01649L0.231561 7.58843C0.0842337 7.72175 0.000140624 7.91112 0.000140624 8.10982L0 11.6723C0 11.8588 0.0740619 12.0376 0.20592 12.1695C0.337779 12.3014 0.516605 12.3755 0.70312 12.3755H5.19324L8.49228 15.6745L9.72953 18.85L8.51637 21.1927C8.42623 21.3668 8.41287 21.5706 8.47943 21.755C8.54604 21.9393 8.68662 22.0876 8.86723 22.1638L13.0859 23.9448C13.1742 23.9821 13.2671 24.0002 13.3593 24.0002C13.5414 24.0002 13.7206 23.9294 13.855 23.7959L17.605 20.0695C17.7378 19.9375 17.8125 19.758 17.8125 19.5708V18.3286L20.3438 18.3286C20.6978 18.3286 20.9966 18.0654 21.0412 17.7142L21.3471 15.3106L23.8704 11.7509C23.9547 11.6321 24 11.49 24 11.3443L24 6.79747C24 6.45683 23.7561 6.16527 23.421 6.10523ZM15.6328 1.40651C17.5713 1.40651 19.1484 2.98361 19.1484 4.92211C19.1484 5.79548 18.5854 7.19562 17.679 8.57613C16.7384 10.0089 15.9006 10.7031 15.6328 10.7781C15.365 10.7031 14.5273 10.0089 13.5867 8.57613C12.6803 7.19562 12.1172 5.79553 12.1172 4.92211C12.1172 2.98361 13.6943 1.40651 15.6328 1.40651ZM22.5938 11.1202L20.0983 14.6407C20.0315 14.7348 19.989 14.844 19.9744 14.9585L19.7245 16.9223L17.1094 16.9223C16.7211 16.9223 16.4063 17.2372 16.4063 17.6255V19.2781L13.1984 22.4658L10.1147 21.164L11.1244 19.2143C11.2174 19.0348 11.2286 18.824 11.1552 18.6358L9.74899 15.0264C9.71364 14.9357 9.65988 14.8533 9.59102 14.7845L5.98167 11.1751C5.84981 11.0433 5.67099 10.9692 5.48452 10.9692H1.40629L1.40638 8.42187L3.14379 6.84992C3.29112 6.71661 3.37521 6.52719 3.37521 6.32854V4.50043H6.60956C6.79607 4.50043 6.9749 4.42632 7.10676 4.29446C7.23862 4.1626 7.31268 3.98373 7.31268 3.79726L7.31263 2.34415L9.81353 2.34401L11.0304 3.17856C10.8243 3.72081 10.7111 4.30843 10.7111 4.92211C10.7111 6.67855 12.0738 8.84622 12.4914 9.46881C13.0399 10.2863 14.4439 12.1877 15.6329 12.1877C16.822 12.1877 18.226 10.2863 18.7744 9.46881C19.0376 9.07652 19.6757 8.07068 20.112 6.94091L22.5939 7.38565L22.5938 11.1202Z" fill="#568E4C"/>
<path d="M15.6328 7.03149C16.7959 7.03149 17.7422 6.08523 17.7422 4.92212C17.7422 3.75901 16.7959 2.81274 15.6328 2.81274C14.4697 2.81274 13.5234 3.75901 13.5234 4.92212C13.5234 6.08523 14.4697 7.03149 15.6328 7.03149ZM15.6328 4.21895C16.0205 4.21895 16.3359 4.53437 16.3359 4.92207C16.3359 5.30978 16.0205 5.6252 15.6328 5.6252C15.2451 5.6252 14.9297 5.30978 14.9297 4.92207C14.9297 4.53437 15.2451 4.21895 15.6328 4.21895Z" fill="#568E4C"/>
</g>
<defs>
<clipPath id="clip0_815_822">
<rect width="24" height="24" fill="white"/>
</clipPath>
</defs>
</svg>
