<svg width="24" height="24" viewBox="0 0 24 24" fill="none" xmlns="http://www.w3.org/2000/svg">
<g clip-path="url(#clip0_815_832)">
<path d="M12 0.000213623C6.95986 0.000213623 2.85938 4.1007 2.85938 9.14084C2.85938 12.3945 3.84914 13.6993 8.60536 19.9694C9.43097 21.0578 10.3668 22.2914 11.4375 23.719C11.5703 23.896 11.7787 24.0002 12 24.0002C12.2214 24.0002 12.4298 23.896 12.5625 23.7189C13.627 22.299 14.5587 21.0701 15.3808 19.9858C20.1485 13.6975 21.1406 12.3889 21.1406 9.14084C21.1406 4.1007 17.0401 0.000213623 12 0.000213623ZM14.2603 19.1362C13.5851 20.0268 12.8361 21.0147 11.9999 22.1263C11.1579 21.0076 10.4047 20.0145 9.72572 19.1195C5.09925 13.0205 4.26562 11.9215 4.26562 9.14084C4.26562 4.8761 7.73527 1.40646 12 1.40646C16.2647 1.40646 19.7344 4.8761 19.7344 9.14084C19.7344 11.9161 18.8986 13.0184 14.2603 19.1362Z" fill="#568E4C"/>
<path d="M12 4.21896C9.28608 4.21896 7.07812 6.42692 7.07812 9.14084C7.07812 11.8548 9.28608 14.0627 12 14.0627C14.7139 14.0627 16.9219 11.8548 16.9219 9.14084C16.9219 6.42692 14.7139 4.21896 12 4.21896ZM12 12.6565C10.0615 12.6565 8.48438 11.0794 8.48438 9.14084C8.48438 7.20232 10.0615 5.62521 12 5.62521C13.9385 5.62521 15.5156 7.20232 15.5156 9.14084C15.5156 11.0794 13.9385 12.6565 12 12.6565Z" fill="#568E4C"/>
</g>
<defs>
<clipPath id="clip0_815_832">
<rect width="24" height="24" fill="white"/>
</clipPath>
</defs>
</svg>
