<svg width="24" height="24" viewBox="0 0 24 24" fill="none" xmlns="http://www.w3.org/2000/svg">
<g clip-path="url(#clip0_818_2396)">
<path d="M24 3.30518C24 1.48296 22.5175 0.000488281 20.6953 0.000488281H5.69531C3.87309 0.000488281 2.39062 1.48296 2.39062 3.30518V18.0914L1.12083 17.1536C0.907312 16.996 0.623297 16.972 0.386344 17.0915C0.149437 17.2111 0 17.4538 0 17.7192V20.6958C0 22.3863 1.27608 23.7834 2.91539 23.9768C2.97248 23.9917 3.03202 24.0005 3.09375 24.0005H15.5156C15.5224 24.0005 15.5291 24.0004 15.5358 24.0002C17.338 23.9768 18.7969 22.5034 18.7969 20.6958V6.83252L18.8169 6.84733C19.0652 7.03066 19.404 7.03066 19.6523 6.84733L21.2658 5.65582L22.8792 6.84733C23.0048 6.94014 23.1512 6.98491 23.2963 6.98491C23.5118 6.98491 23.7246 6.88614 23.8625 6.69944C23.9554 6.57353 24 6.427 23.9997 6.28174C23.9994 6.15016 24 5.66974 24 5.53174V3.30518ZM15.6183 22.5896C15.5766 22.5924 15.5346 22.5942 15.4922 22.5942C14.4454 22.5942 13.5938 21.7426 13.5938 20.6958V17.7192C13.5938 17.4538 13.4443 17.2111 13.2074 17.0915C12.9705 16.9719 12.6865 16.9959 12.473 17.1536L10.8592 18.3452L9.24544 17.1536C8.99719 16.9703 8.65837 16.9703 8.41008 17.1536L6.79659 18.3451L6.05892 17.8004L5.18306 17.1536C4.93477 16.9703 4.59595 16.9703 4.34766 17.1536L3.79688 17.5604V3.30518C3.79688 2.25836 4.6485 1.40674 5.69531 1.40674H17.9928C17.614 1.94435 17.3906 2.59896 17.3906 3.30518V20.6958C17.3906 21.7001 16.6065 22.5244 15.6183 22.5896ZM3.30469 22.5942C2.25787 22.5942 1.40625 21.7426 1.40625 20.6958V19.1126L2.31652 19.7848C2.56481 19.9682 2.90358 19.9682 3.15192 19.7848L4.76536 18.5933L6.37889 19.7848C6.62719 19.9682 6.966 19.9682 7.21425 19.7848L8.82773 18.5933L10.4415 19.7848C10.6898 19.9682 11.0285 19.9682 11.2768 19.7848L12.1875 19.1125V20.6958C12.1875 21.4017 12.4101 22.0567 12.7886 22.5942H3.30469ZM19.2346 5.40766L18.7969 5.08436V4.22683V3.30518C18.7969 2.25836 19.6485 1.40674 20.6953 1.40674C21.7421 1.40674 22.5938 2.25836 22.5938 3.30518V4.88838L21.6835 4.21614C21.4352 4.03277 21.0964 4.03277 20.8481 4.21614L20.3648 4.573L19.2346 5.40766Z" fill="#568E4C"/>
<path d="M5.67188 6.23486C5.67188 6.62318 5.98669 6.93799 6.375 6.93799H14.8125C15.2008 6.93799 15.5156 6.62318 15.5156 6.23486C15.5156 5.84655 15.2008 5.53174 14.8125 5.53174H6.375C5.98669 5.53174 5.67188 5.84655 5.67188 6.23486Z" fill="#568E4C"/>
<path d="M5.67188 9.04736C5.67188 9.43568 5.98669 9.75049 6.375 9.75049H14.8125C15.2008 9.75049 15.5156 9.43568 15.5156 9.04736C15.5156 8.65905 15.2008 8.34424 14.8125 8.34424H6.375C5.98669 8.34424 5.67188 8.65905 5.67188 9.04736Z" fill="#568E4C"/>
<path d="M5.67188 11.8599C5.67188 12.2482 5.98669 12.563 6.375 12.563H14.8125C15.2008 12.563 15.5156 12.2482 15.5156 11.8599C15.5156 11.4716 15.2008 11.1567 14.8125 11.1567H6.375C5.98669 11.1567 5.67188 11.4716 5.67188 11.8599Z" fill="#568E4C"/>
<path d="M5.67188 14.6724C5.67188 15.0607 5.98669 15.3755 6.375 15.3755H14.8125C15.2008 15.3755 15.5156 15.0607 15.5156 14.6724C15.5156 14.2841 15.2008 13.9692 14.8125 13.9692H6.375C5.98669 13.9692 5.67188 14.2841 5.67188 14.6724Z" fill="#568E4C"/>
</g>
<defs>
<clipPath id="clip0_818_2396">
<rect width="24" height="24" fill="white" transform="translate(0 0.000488281)"/>
</clipPath>
</defs>
</svg>
