<svg width="24" height="24" viewBox="0 0 24 24" fill="none" xmlns="http://www.w3.org/2000/svg">
<path d="M23.998 5.24995C24.0028 4.0246 22.9474 3.06325 21.732 3.14059L19.3504 0H4.6661L2.26706 3.14059C0.0498053 3.02374 -0.853233 5.87352 1.0015 7.04506L2.16891 20.4852C1.02859 21.8653 2.03569 24.008 3.84196 23.9998C5.31925 24.0217 6.39746 22.4662 5.86342 21.0935H18.199C17.6653 22.4664 18.743 24.0216 20.2205 23.9998C22.0714 24.0066 23.0601 21.7766 21.8334 20.4147L22.9948 7.04506C23.5962 6.67311 23.998 6.00768 23.998 5.24995ZM3.51116 19.6873L2.44036 7.3593H21.5559L20.4851 19.6873H3.51116ZM5.36149 1.40624H18.652L19.9672 3.14059H4.03663L5.36149 1.40624ZM2.1076 4.54683H21.8887C22.2764 4.54683 22.5918 4.86225 22.5918 5.24995C22.5918 5.63765 22.2764 5.95307 21.8887 5.95307H2.1076C1.18051 5.91683 1.16922 4.58827 2.1076 4.54683ZM4.59195 21.8435C4.59195 22.2571 4.25548 22.5935 3.84196 22.5935C2.847 22.5523 2.84728 21.1346 3.84196 21.0935C4.25548 21.0935 4.59195 21.43 4.59195 21.8435ZM20.2205 22.5935C19.807 22.5935 19.4705 22.2571 19.4705 21.8435C19.5117 20.8486 20.9294 20.8489 20.9705 21.8435C20.9705 22.2571 20.6341 22.5935 20.2205 22.5935Z" fill="#568E4C"/>
<path d="M9.56069 13.2655C9.56069 12.6146 9.81423 12.0023 10.2746 11.5416L9.27986 10.5476C6.86812 12.9412 8.59981 17.1169 11.9982 17.1092V15.703C10.6541 15.703 9.56069 14.6095 9.56069 13.2655Z" fill="#568E4C"/>
<path d="M11.998 9.42178V10.828C14.1543 10.8235 15.2507 13.472 13.7216 14.9894L14.7163 15.9834C17.1281 13.5898 15.3964 9.41404 11.998 9.42178Z" fill="#568E4C"/>
</svg>
