<svg width="24" height="24" viewBox="0 0 24 24" fill="none" xmlns="http://www.w3.org/2000/svg">
<g clip-path="url(#clip0_818_2368)">
<path d="M22.5938 13.6996V2.15662C22.5938 1.76825 22.279 1.45349 21.8906 1.45349H18.3281V0.703491C18.3281 0.315125 18.0134 0.000366211 17.625 0.000366211C17.2366 0.000366211 16.9219 0.315125 16.9219 0.703491V1.45349H14.1094V0.703491C14.1094 0.315125 13.7946 0.000366211 13.4062 0.000366211C13.0179 0.000366211 12.7031 0.315125 12.7031 0.703491V1.45349H9.89062V0.703491C9.89062 0.315125 9.57587 0.000366211 9.1875 0.000366211C8.79913 0.000366211 8.48438 0.315125 8.48438 0.703491V1.45349H5.67188V0.703491C5.67188 0.315125 5.35712 0.000366211 4.96875 0.000366211C4.58038 0.000366211 4.26562 0.315125 4.26562 0.703491V1.45349H0.703125C0.314758 1.45349 0 1.76825 0 2.15662V20.4847C0 20.8731 0.314758 21.1879 0.703125 21.1879H12.4127C13.5494 22.8825 15.4825 24.0004 17.6719 24.0004C21.1611 24.0004 24 21.1615 24 17.6722C24 16.1689 23.4727 14.7865 22.5938 13.6996ZM4.26562 2.85974V3.56287C4.26562 3.95123 4.58038 4.26599 4.96875 4.26599C5.35712 4.26599 5.67188 3.95123 5.67188 3.56287V2.85974H8.48438V3.56287C8.48438 3.95123 8.79913 4.26599 9.1875 4.26599C9.57587 4.26599 9.89062 3.95123 9.89062 3.56287V2.85974H12.7031V3.56287C12.7031 3.95123 13.0179 4.26599 13.4062 4.26599C13.7946 4.26599 14.1094 3.95123 14.1094 3.56287V2.85974H16.9219V3.56287C16.9219 3.95123 17.2366 4.26599 17.625 4.26599C18.0134 4.26599 18.3281 3.95123 18.3281 3.56287V2.85974H21.1875V5.67224H1.40625V2.85974H4.26562ZM1.40625 19.7816V7.07849H21.1875V12.4131C20.1813 11.7383 18.9717 11.3441 17.6719 11.3441C15.4501 11.3441 13.4923 12.4953 12.3629 14.2322C12.2679 14.1843 12.1608 14.1566 12.0469 14.1566H10.6406C10.2523 14.1566 9.9375 14.4714 9.9375 14.8597C9.9375 15.2481 10.2523 15.5629 10.6406 15.5629H11.7057C11.547 16.0107 11.4371 16.4817 11.3831 16.9691H10.6406C10.2523 16.9691 9.9375 17.2839 9.9375 17.6722C9.9375 18.0606 10.2523 18.3754 10.6406 18.3754H11.3831C11.4371 18.8628 11.5468 19.3337 11.7057 19.7816H1.40625ZM17.6719 22.5941C14.9579 22.5941 12.75 20.3862 12.75 17.6722C12.75 14.9583 14.9579 12.7504 17.6719 12.7504C20.3859 12.7504 22.5938 14.9583 22.5938 17.6722C22.5938 20.3862 20.3859 22.5941 17.6719 22.5941Z" fill="#568E4C"/>
<path d="M20.4844 16.9691H18.375V14.8597C18.375 14.4714 18.0602 14.1566 17.6719 14.1566C17.2835 14.1566 16.9688 14.4714 16.9688 14.8597V17.6722C16.9688 18.0606 17.2835 18.3754 17.6719 18.3754H20.4844C20.8727 18.3754 21.1875 18.0606 21.1875 17.6722C21.1875 17.2839 20.8727 16.9691 20.4844 16.9691Z" fill="#568E4C"/>
<path d="M6.375 8.53162H4.96875C4.58038 8.53162 4.26562 8.84637 4.26562 9.23474C4.26562 9.62311 4.58038 9.93787 4.96875 9.93787H6.375C6.76337 9.93787 7.07812 9.62311 7.07812 9.23474C7.07812 8.84637 6.76337 8.53162 6.375 8.53162Z" fill="#568E4C"/>
<path d="M6.375 11.3441H4.96875C4.58038 11.3441 4.26562 11.6589 4.26562 12.0472C4.26562 12.4356 4.58038 12.7504 4.96875 12.7504H6.375C6.76337 12.7504 7.07812 12.4356 7.07812 12.0472C7.07812 11.6589 6.76337 11.3441 6.375 11.3441Z" fill="#568E4C"/>
<path d="M6.375 14.1566H4.96875C4.58038 14.1566 4.26562 14.4714 4.26562 14.8597C4.26562 15.2481 4.58038 15.5629 4.96875 15.5629H6.375C6.76337 15.5629 7.07812 15.2481 7.07812 14.8597C7.07812 14.4714 6.76337 14.1566 6.375 14.1566Z" fill="#568E4C"/>
<path d="M10.6406 9.93787H12.0469C12.4352 9.93787 12.75 9.62311 12.75 9.23474C12.75 8.84637 12.4352 8.53162 12.0469 8.53162H10.6406C10.2523 8.53162 9.9375 8.84637 9.9375 9.23474C9.9375 9.62311 10.2523 9.93787 10.6406 9.93787Z" fill="#568E4C"/>
<path d="M10.6406 12.7504H12.0469C12.4352 12.7504 12.75 12.4356 12.75 12.0472C12.75 11.6589 12.4352 11.3441 12.0469 11.3441H10.6406C10.2523 11.3441 9.9375 11.6589 9.9375 12.0472C9.9375 12.4356 10.2523 12.7504 10.6406 12.7504Z" fill="#568E4C"/>
<path d="M6.375 16.9691H4.96875C4.58038 16.9691 4.26562 17.2839 4.26562 17.6722C4.26562 18.0606 4.58038 18.3754 4.96875 18.3754H6.375C6.76337 18.3754 7.07812 18.0606 7.07812 17.6722C7.07812 17.2839 6.76337 16.9691 6.375 16.9691Z" fill="#568E4C"/>
<path d="M16.2656 9.93787H17.6719C18.0602 9.93787 18.375 9.62311 18.375 9.23474C18.375 8.84637 18.0602 8.53162 17.6719 8.53162H16.2656C15.8773 8.53162 15.5625 8.84637 15.5625 9.23474C15.5625 9.62311 15.8773 9.93787 16.2656 9.93787Z" fill="#568E4C"/>
</g>
<defs>
<clipPath id="clip0_818_2368">
<rect width="24" height="24" fill="white" transform="translate(0 0.000366211)"/>
</clipPath>
</defs>
</svg>
