<svg width="24" height="24" viewBox="0 0 24 24" fill="none" xmlns="http://www.w3.org/2000/svg">
<g clip-path="url(#clip0_815_1393)">
<path d="M21.8906 16.9688C22.279 16.9688 22.5938 16.654 22.5938 16.2657C22.5938 15.8774 22.279 15.5626 21.8906 15.5626C21.5023 15.5626 21.1875 15.8774 21.1875 16.2657C21.1875 16.654 21.5023 16.9688 21.8906 16.9688Z" fill="#568E4C"/>
<path d="M12 11.3438C12.3883 11.3438 12.7031 11.029 12.7031 10.6407C12.7031 10.2524 12.3883 9.93759 12 9.93759C11.6117 9.93759 11.2969 10.2524 11.2969 10.6407C11.2969 11.029 11.6117 11.3438 12 11.3438Z" fill="#568E4C"/>
<path d="M21.1875 18.3751C21.0631 18.3751 20.9393 18.3835 20.8162 18.4003C20.3265 17.5327 19.4 16.9688 18.375 16.9688C18.3364 16.9688 18.2974 16.9697 18.258 16.9714C18.084 16.1142 17.5968 15.3694 16.9219 14.8615V12.047C16.9219 8.57278 14.6521 5.65059 11.6411 4.62398C12.2956 3.98512 12.7031 3.09417 12.7031 2.10947C12.7031 1.72115 12.3883 1.40634 12 1.40634H10.885C10.4316 1.40634 10.0053 1.22976 9.68466 0.909185C9.09848 0.32292 8.31905 9.15527e-05 7.49002 9.15527e-05H6.375C5.98669 9.15527e-05 5.67188 0.314904 5.67188 0.703217V2.10947C5.67188 3.09337 6.0787 3.98367 6.73233 4.62244C3.73819 5.63742 1.40625 8.5395 1.40625 12.047V17.2637C1.40625 17.9503 1.18153 18.5243 0.78975 18.8388C0.287859 19.2416 0 19.8414 0 20.4845V21.8907C0 22.279 0.314812 22.5938 0.703125 22.5938H9.18942C9.83147 23.4472 10.8523 24.0001 12 24.0001H21.1875C22.7383 24.0001 24 22.7384 24 21.1876C24 19.6368 22.7383 18.3751 21.1875 18.3751ZM7.07812 2.10947V1.40634H7.49002C7.94344 1.40634 8.36972 1.58292 8.69034 1.9035C9.27656 2.48972 10.056 2.81212 10.885 2.81212H11.1764C10.8862 3.63061 10.1042 4.21884 9.1875 4.21884C8.02439 4.21884 7.07812 3.27258 7.07812 2.10947ZM1.40625 21.1876V20.4845C1.40625 20.2701 1.50234 20.07 1.66992 19.9355C2.39606 19.3527 2.8125 18.3789 2.8125 17.2637V12.047C2.8125 8.56594 5.73187 5.62509 9.1875 5.62509C12.6768 5.62509 15.5156 8.50594 15.5156 12.047V14.2278C15.2883 14.1815 15.0533 14.1563 14.8125 14.1563C13.0939 14.1563 11.6594 15.396 11.356 17.028C9.72398 17.3314 8.48438 18.7659 8.48438 20.4845C8.48438 20.7252 8.5088 20.9603 8.55511 21.1876H1.40625ZM21.1875 22.5938H12C10.8369 22.5938 9.89062 21.6476 9.89062 20.4845C9.89062 19.3214 10.8369 18.3751 12 18.3751C12.3883 18.3751 12.7031 18.0603 12.7031 17.672C12.7031 16.5089 13.6494 15.5626 14.8125 15.5626C15.9677 15.5626 16.909 16.496 16.9217 17.6482C16.8306 18.2902 17.3908 18.6335 17.8515 18.4662C18.0039 18.4109 18.2094 18.3751 18.375 18.3751C19.0037 18.3751 19.5586 18.8032 19.7245 19.4161C19.8344 19.8222 20.2746 20.0419 20.6652 19.885C20.8365 19.8162 21.0122 19.7813 21.1875 19.7813C21.9629 19.7813 22.5938 20.4122 22.5938 21.1876C22.5938 21.963 21.9629 22.5938 21.1875 22.5938Z" fill="#568E4C"/>
<path d="M22.4732 12.7501C22.0914 12.3684 21.5986 12.1642 21.0978 12.1367C21.0704 11.6359 20.8662 11.1431 20.4845 10.7614C20.2099 10.4868 19.7647 10.4868 19.4901 10.7614C19.2155 11.036 19.2155 11.4811 19.4901 11.7557C19.7643 12.0299 19.7643 12.476 19.4901 12.7501C19.2155 13.0247 19.2155 13.4699 19.4901 13.7445C19.7654 14.0198 20.2107 14.0183 20.4845 13.7445C20.7587 13.4703 21.2047 13.4703 21.4788 13.7445C21.7535 14.019 22.1986 14.019 22.4732 13.7445C22.7478 13.4699 22.7478 13.0246 22.4732 12.7501Z" fill="#568E4C"/>
<path d="M9.18754 15.1507C9.46147 15.4247 9.90679 15.4259 10.1819 15.1507C10.4565 14.8761 10.4565 14.4309 10.1819 14.1563C9.90777 13.8822 9.90777 13.4361 10.1819 13.162C10.4564 12.8874 10.4564 12.4422 10.1819 12.1676C9.9073 11.8931 9.46213 11.8931 9.18754 12.1676C8.80583 12.5494 8.6016 13.0422 8.57422 13.543C8.07341 13.5704 7.58057 13.7746 7.19887 14.1563C6.92427 14.4309 6.92427 14.8761 7.19887 15.1507C7.47341 15.4252 7.91858 15.4253 8.19322 15.1507C8.46735 14.8766 8.91341 14.8766 9.18754 15.1507Z" fill="#568E4C"/>
</g>
<defs>
<clipPath id="clip0_815_1393">
<rect width="24" height="24" fill="white"/>
</clipPath>
</defs>
</svg>
